<svg width="77" height="71" viewBox="0 0 77 71" fill="none" xmlns="http://www.w3.org/2000/svg">
<path d="M9.56805 2.44198C9.923 2.39487 10.2778 2.44198 10.6325 2.58353C11.3086 2.84276 11.9002 3.20259 12.4071 3.66261C12.9143 4.12283 13.3579 4.66575 13.7381 5.29117C14.1185 5.9162 14.4523 6.60643 14.7393 7.36186C15.0266 8.1169 15.2971 8.91926 15.5509 9.76892C15.5675 9.81624 15.5759 9.85143 15.5759 9.87468C15.593 9.922 15.6015 10.0047 15.6015 10.1228C15.669 10.4532 15.7323 10.8071 15.7912 11.1844C15.8504 11.5619 15.8968 11.9865 15.9307 12.4583C16.0829 14.2045 16.007 15.8212 15.7029 17.3082C15.5845 17.8978 15.4703 18.4403 15.3606 18.9359C15.2509 19.4318 15.1199 19.9037 14.9677 20.3522C14.9338 20.3995 14.9084 20.4586 14.8914 20.5295C14.8746 20.6001 14.8494 20.6589 14.8156 20.7061C14.7817 20.8005 14.748 20.8655 14.7142 20.9009C14.6804 20.9359 14.6297 21.0478 14.5622 21.2365C14.4945 21.4492 14.486 21.5967 14.5365 21.6794C14.5874 21.7621 14.7649 22.0038 15.069 22.4046C15.8803 23.5376 16.4464 24.5993 16.7674 25.5902C16.8519 25.8738 16.8985 26.1631 16.9069 26.4577C16.9151 26.7525 16.9025 27.0652 16.8687 27.396C16.8348 27.6553 16.7545 27.8791 16.6278 28.068C16.5014 28.2566 16.3199 28.3982 16.0834 28.4926C15.9649 28.5165 15.8168 28.5284 15.6391 28.5284C15.4617 28.5284 15.3141 28.5047 15.1961 28.4576C15.0776 28.4103 14.9084 28.3099 14.6886 28.1563C14.4691 28.003 14.2452 27.832 14.0171 27.6434C13.7889 27.4545 13.5776 27.2658 13.3833 27.0772C13.1888 26.8885 13.0495 26.7233 12.9652 26.5818C12.8805 26.4637 12.8169 26.3456 12.7745 26.2279C12.7323 26.1098 12.6773 25.9917 12.6099 25.874C12.5085 25.7086 12.4323 25.6025 12.3815 25.5552C12.3309 25.5081 12.2973 25.4725 12.2807 25.4486C12.213 25.3544 12.1031 25.3663 11.9509 25.4844C11.8666 25.5788 11.7694 25.6733 11.6593 25.7675C11.5496 25.8619 11.4441 25.9683 11.3427 26.0864C11.3256 26.1098 11.2705 26.1687 11.1775 26.2629C11.0848 26.3573 10.9879 26.4518 10.8865 26.546C10.7851 26.6404 10.6879 26.7289 10.5949 26.8116C10.5018 26.8943 10.4468 26.9356 10.4297 26.9356C10.4129 26.9591 10.1088 27.1949 9.51736 27.6434C9.07798 27.9736 8.62578 28.233 8.16077 28.4219C7.69604 28.6111 7.21024 28.7057 6.70336 28.7057C5.89237 28.7057 5.07254 28.4282 4.24417 27.8732C3.41609 27.3185 2.70619 26.6641 2.11474 25.909C1.81061 25.5317 1.56131 25.1898 1.36696 24.8832C1.17247 24.5763 1.00773 24.2578 0.872614 23.9274C0.737353 23.5966 0.619178 23.2425 0.517803 22.865C0.416429 22.4877 0.315054 22.0394 0.213679 21.5203C0.146049 21.1895 0.112305 20.8532 0.112305 20.5112C0.112305 20.1693 0.120847 19.8214 0.137933 19.4671C0.154592 18.6646 0.251552 17.7559 0.428958 16.7412C0.606648 15.7265 0.830612 14.7061 1.10099 13.6797C1.37123 12.6535 1.67535 11.6623 2.01336 10.7065C2.35166 9.75063 2.69807 8.91886 3.05274 8.21113C3.27257 7.76264 3.47105 7.34974 3.64846 6.97222C3.82615 6.5949 4.04157 6.22911 4.29486 5.87485C4.34569 5.80447 4.39652 5.72197 4.44749 5.62754C4.61636 5.24962 4.82338 4.8719 5.06827 4.49438C5.31345 4.11706 5.5797 3.83397 5.86674 3.64511C5.96811 3.55088 6.09483 3.48588 6.24718 3.45029C6.39938 3.4149 6.54304 3.39701 6.6783 3.39701C6.88105 3.39701 7.109 3.50337 7.3623 3.71589C7.5145 3.85743 7.62442 3.9282 7.69205 3.9282C7.75954 3.9282 7.86946 3.83397 8.0218 3.64511C8.61325 2.96085 9.12867 2.55967 9.56805 2.44198ZM10.7344 6.05217C10.6326 5.91063 10.5183 5.79274 10.3916 5.69831C10.2651 5.60408 10.0836 5.55677 9.84712 5.55677C9.03569 5.55677 8.35953 5.84602 7.81848 6.42433C7.27772 7.00224 6.7878 7.73938 6.34855 8.63577C5.58796 10.1934 4.97957 11.8217 4.52324 13.5207C4.06677 15.2198 3.77105 17.0012 3.63593 18.8652C3.63593 19.2666 3.61044 19.6679 3.55961 20.0691C3.50907 20.4699 3.51761 20.8826 3.58524 21.3072L3.71224 22.1573L3.78799 22.4754C3.90645 22.9477 4.1008 23.3668 4.37118 23.7326C4.64142 24.0984 4.96248 24.2813 5.33424 24.2813C5.62156 24.2813 5.9385 24.2105 6.28477 24.0689C6.63132 23.927 6.98214 23.7499 7.33724 23.5378C7.69219 23.3252 8.03447 23.0893 8.36409 22.83C8.69355 22.5704 8.96806 22.3106 9.18761 22.0507C9.37356 21.8621 9.48775 21.7148 9.52989 21.6086C9.57204 21.5026 9.59311 21.4261 9.59311 21.3788C9.59311 21.1663 9.37342 20.8241 8.93417 20.3522C8.59616 19.9981 8.31738 19.715 8.09755 19.5029C7.878 19.2904 7.76837 19.1606 7.76837 19.1133C7.76837 18.9479 7.82731 18.7002 7.94549 18.3698C8.09769 17.9686 8.32593 17.827 8.63005 17.9451C8.69754 17.9451 8.75677 17.9569 8.80774 17.9801H8.88349C9.11998 18.004 9.70303 18.2519 10.6325 18.7236C10.9874 18.8652 11.165 18.9359 11.165 18.9359C11.2325 18.9127 11.3424 18.7711 11.4947 18.5113C11.7312 18.0396 11.8495 17.8036 11.8495 17.8036C11.8666 17.7797 11.8752 17.7563 11.8752 17.7328C11.8918 17.709 11.917 17.6499 11.9509 17.5555C12.0523 17.2724 12.1451 16.9185 12.2294 16.4939C12.314 16.0693 12.3943 15.6269 12.4703 15.1667C12.5466 14.7067 12.6059 14.2584 12.648 13.822C12.6902 13.3853 12.7198 13.0018 12.7369 12.6714C12.7535 12.199 12.7408 11.7092 12.6987 11.2019C12.6566 10.6945 12.5509 10.1814 12.3821 9.66237C12.2973 9.37928 12.217 9.16119 12.1411 9.00792C12.0651 8.85425 12.0103 8.7302 11.9766 8.63577C11.9766 8.63577 11.9427 8.54154 11.8752 8.35268C11.6553 7.80996 11.4566 7.34974 11.2789 6.97222C11.1015 6.5949 10.9201 6.28815 10.7344 6.05217Z" fill="#101010"/>
<path d="M29.4436 9.875C29.6296 9.875 29.8282 9.95194 30.0394 10.1056C30.2508 10.2589 30.4451 10.4535 30.6225 10.6893C30.8002 10.9253 30.9439 11.1909 31.0537 11.4861C31.1633 11.7809 31.2183 12.0697 31.2183 12.3528C31.2183 12.4711 31.2097 12.6482 31.1926 12.884C31.1758 13.12 31.1254 13.4148 31.0411 13.7683C30.7028 15.2314 30.4998 16.3525 30.4323 17.1312C30.4323 17.1312 30.4154 17.2493 30.3816 17.485C30.3311 18.2166 30.3059 18.9247 30.3059 19.609C30.3059 20.2935 30.3227 20.9423 30.3566 21.5556C30.4241 22.2163 30.5383 22.7413 30.6989 23.1309C30.8595 23.5202 31.21 23.7146 31.7508 23.7146C32.0549 23.7146 32.3337 23.5967 32.5874 23.3607C32.6549 23.3136 32.7056 23.2842 32.7395 23.2725C32.7732 23.2609 32.8069 23.2431 32.8408 23.2192C32.9083 23.1959 33.0097 23.1842 33.1449 23.1842C33.2801 23.1842 33.3477 23.1959 33.3477 23.2192C33.3477 23.5967 33.2927 24.0039 33.1831 24.4406C33.0733 24.877 32.9297 25.3016 32.752 25.7145C32.5746 26.1276 32.3761 26.5111 32.1563 26.8652C31.9367 27.2192 31.7254 27.5023 31.5224 27.7144C31.4042 27.8325 31.2902 27.9093 31.1801 27.9443C31.0703 27.9796 30.9479 27.9858 30.8128 27.9625C30.2549 27.8443 29.7395 27.5848 29.2665 27.184C28.7934 26.7829 28.3624 26.3107 27.9737 25.7678C27.8552 25.6024 27.7072 25.4551 27.5295 25.3257C27.3521 25.1959 27.2382 25.1545 27.1878 25.2016C27.0525 25.3193 26.9258 25.4609 26.8073 25.6263C26.6892 25.7917 26.5795 25.9688 26.4781 26.1574C26.3426 26.3696 26.1565 26.6113 25.92 26.8827C25.6834 27.1542 25.4638 27.384 25.2611 27.5729C24.906 27.9741 24.5173 28.2633 24.0947 28.4405C23.6724 28.6174 23.2416 28.7061 22.8019 28.7061C22.3454 28.7061 21.9102 28.6114 21.496 28.4222C21.0821 28.2333 20.6977 27.9677 20.3427 27.6254C19.988 27.2834 19.6839 26.8707 19.4303 26.3873C19.177 25.9034 18.9827 25.3547 18.8471 24.7412C18.7966 24.4581 18.7586 24.1398 18.7332 23.7862C18.7077 23.4321 18.7119 23.0307 18.7458 22.5822C18.8809 20.8833 19.0456 19.3376 19.2401 17.9455C19.4345 16.5535 19.6754 15.1138 19.9628 13.6267C19.9966 13.4381 20.0218 13.2554 20.0386 13.0788C20.0557 12.9019 20.081 12.719 20.1149 12.5302C20.1995 12.1994 20.2587 11.9161 20.2926 11.6801C20.3263 11.4443 20.3854 11.2555 20.4697 11.1139C20.7062 10.6654 20.9344 10.4412 21.1543 10.4412C21.2727 10.4412 21.4078 10.4945 21.5598 10.601C21.712 10.7072 21.864 10.837 22.016 10.9907C22.1682 11.1439 22.3077 11.3032 22.4345 11.4686C22.5613 11.6336 22.65 11.7747 22.7005 11.8924C22.768 12.0578 22.8146 12.2175 22.84 12.3711C22.8654 12.5244 22.8865 12.6717 22.9033 12.8133C22.9203 12.9309 22.9289 13.0548 22.9289 13.1846C22.9289 13.3146 22.9372 13.4619 22.954 13.6267C22.954 13.6979 22.937 13.8748 22.9033 14.1579C22.8694 14.441 22.8271 14.742 22.7763 15.0605C22.7257 15.3792 22.6794 15.6799 22.6373 15.963C22.5952 16.2461 22.5655 16.435 22.5485 16.5292C22.2443 18.5353 22.0246 20.0692 21.8895 21.131C21.7543 22.193 21.7289 23.0069 21.8132 23.5731C21.8469 23.9035 21.885 24.1217 21.9271 24.2283C21.9695 24.3345 22.0246 24.411 22.0923 24.4581C22.2611 24.5764 22.4387 24.5647 22.6248 24.4231C23.064 24.1162 23.4736 23.715 23.8538 23.2192C24.2342 22.7236 24.5892 22.1811 24.9188 21.5914C25.2483 21.0014 25.5441 20.3819 25.8061 19.7331C26.0681 19.0842 26.2835 18.4647 26.4525 17.8747C26.7061 17.0016 26.9426 16.1169 27.1621 15.2203C27.382 14.3233 27.5849 13.5327 27.771 12.8482C27.9061 12.3055 28.0244 11.863 28.1258 11.5211C28.2271 11.1791 28.3285 10.9255 28.4299 10.7601C28.565 10.5004 28.7085 10.2881 28.8604 10.1231C29.0127 9.9577 29.207 9.875 29.4436 9.875Z" fill="#101010"/>
<path d="M35.7048 2.76001C35.9075 2.76001 36.1103 2.81329 36.313 2.91984C36.5158 3.026 36.7016 3.17331 36.8706 3.36197C37.0394 3.55083 37.1832 3.76911 37.3017 4.01722C37.4202 4.26492 37.5046 4.53012 37.5551 4.81321C37.606 5.16747 37.6229 5.48594 37.6058 5.76903C37.5719 6.19367 37.4538 6.54177 37.251 6.81313C37.0483 7.08469 36.7863 7.22027 36.4651 7.22027C36.3469 7.22027 36.1948 7.18508 36.0089 7.11451C35.8228 7.04353 35.6367 6.94314 35.4508 6.81313C35.2651 6.68331 35.0961 6.54177 34.9439 6.38849C34.792 6.23482 34.6822 6.08711 34.6147 5.94557C34.4457 5.47382 34.4457 4.78975 34.6147 3.89316C34.6822 3.49199 34.8132 3.20274 35.0077 3.02561C35.202 2.84867 35.4344 2.76001 35.7048 2.76001ZM35.4006 9.94541C35.5187 9.94541 35.6663 10.0046 35.8437 10.1227C36.0214 10.2404 36.1988 10.382 36.3762 10.5474C36.5539 10.7124 36.7186 10.8893 36.8706 11.0786C37.0228 11.2674 37.1412 11.4324 37.2259 11.574C37.5467 12.1636 37.6565 12.9067 37.5551 13.8037C37.5551 13.851 37.5466 13.9572 37.5295 14.1226C37.5127 14.2876 37.496 14.5114 37.4794 14.7945C37.4794 14.8657 37.4708 15.0132 37.4538 15.2374C37.437 15.4617 37.4243 15.6919 37.4156 15.9277C37.4072 16.1636 37.3945 16.3879 37.3774 16.6004C37.3606 16.8125 37.3524 16.9541 37.3524 17.025C37.3356 17.3316 37.3145 17.7445 37.2892 18.264C37.2637 18.783 37.2425 19.3375 37.2254 19.9275C37.2086 20.5171 37.1959 21.0833 37.1872 21.626C37.1788 22.169 37.1747 22.6055 37.1747 22.9357C37.1918 24.5878 37.0989 25.803 36.8962 26.5817C36.8115 26.8409 36.7268 27.065 36.6422 27.2537C36.5579 27.4429 36.4567 27.5964 36.3386 27.7141C36.1188 27.9737 35.8229 28.0445 35.4513 27.9264C35.3666 27.8791 35.244 27.8083 35.0834 27.7141C34.9228 27.6196 34.7497 27.4781 34.564 27.2894C34.2936 27.0537 34.1204 26.859 34.044 26.7058C33.968 26.5521 33.8962 26.3102 33.8288 25.9797C33.8117 25.8143 33.7862 25.437 33.7524 24.8474C33.7524 24.3279 33.7692 23.8144 33.8031 23.3071C33.8369 22.7998 33.8792 22.2867 33.9301 21.7676L33.9808 21.1656C33.9975 20.977 34.01 20.7823 34.0184 20.582C34.0271 20.3816 34.0483 20.1752 34.0822 19.9625C34.0993 19.8444 34.1161 19.6261 34.1329 19.3081C34.15 18.9896 34.171 18.6592 34.1961 18.3172C34.2214 17.9749 34.2425 17.662 34.2593 17.3789C34.2764 17.0958 34.2849 16.9304 34.2849 16.8827C34.2849 16.8594 34.2891 16.7298 34.2975 16.4938C34.3062 16.2581 34.3188 15.9927 34.3356 15.6979C34.3527 15.4026 34.3738 15.1076 34.3988 14.8128C34.4242 14.5176 34.4455 14.2991 34.4626 14.1576C34.4964 13.8035 34.5259 13.5204 34.5509 13.3083C34.5763 13.0958 34.5891 12.9542 34.5891 12.8837C34.6228 12.6711 34.6398 12.5 34.6398 12.37C34.6398 12.2401 34.6483 12.128 34.6654 12.0336C34.682 11.8449 34.6987 11.6976 34.7155 11.5915C34.7326 11.4855 34.7411 11.3853 34.7411 11.2909C34.7582 11.0545 34.8216 10.7712 34.9313 10.4408C35.041 10.1106 35.1975 9.94541 35.4006 9.94541Z" fill="#101010"/>
<path d="M45.1885 10.2993C46.0674 10.2993 46.8785 10.5766 47.622 11.1311C48.3658 11.6857 48.9321 12.5294 49.3209 13.6622C49.456 14.0868 49.5237 14.4526 49.5237 14.7596C49.5237 15.09 49.4898 15.3319 49.4223 15.4856C49.3547 15.6389 49.2195 15.7627 49.0168 15.8569C48.9321 15.9043 48.8602 15.9396 48.801 15.9635C48.7417 15.987 48.6868 15.9985 48.6364 15.9985C48.5516 15.9985 48.4669 15.975 48.3824 15.9277C48.2981 15.8806 48.1883 15.7979 48.0532 15.6796C47.7994 15.491 47.584 15.3436 47.4068 15.2375C47.2294 15.1309 47.0901 15.0542 46.9887 15.0069C46.5999 14.8892 46.2449 14.8303 45.9237 14.8303C45.7885 14.8303 45.6744 14.8363 45.5815 14.8478C45.4883 14.8596 45.3998 14.8773 45.3155 14.9011C44.7576 15.1842 44.2717 15.6621 43.8575 16.3349C43.4436 17.0072 43.1354 17.7209 42.9326 18.4763C42.8987 18.6179 42.8734 18.7006 42.8563 18.7244C42.8395 18.7479 42.8312 18.7831 42.8312 18.8302C42.8312 18.8063 42.8227 18.8536 42.8056 18.9717C42.7888 19.0894 42.7636 19.2075 42.7299 19.3256C42.5604 20.1277 42.4675 20.9064 42.4508 21.6619C42.4169 22.5111 42.6029 23.225 43.0084 23.8033C43.4139 24.3813 43.9716 24.7528 44.6816 24.9182C44.9857 24.9888 45.2984 25.024 45.6196 25.024C46.1097 25.024 46.604 24.9357 47.1026 24.7592C47.6011 24.5822 48.0785 24.3518 48.535 24.0681L48.5857 24.0332C48.6532 23.986 48.7122 23.9505 48.7628 23.9266C48.9487 23.8089 49.139 23.6853 49.3335 23.5552C49.5278 23.4254 49.7179 23.2781 49.9035 23.1131C50.0391 22.995 50.1069 22.9358 50.1069 22.9358C50.1235 22.9358 50.3684 22.7235 50.8415 22.2988C50.9261 22.2279 50.9853 22.1923 51.0192 22.1923C51.0359 22.169 51.0528 22.1573 51.0699 22.1573C51.0699 22.2046 51.0107 22.3813 50.8922 22.6877C50.8246 22.8531 50.7698 22.995 50.7276 23.1131C50.6855 23.2308 50.6475 23.337 50.6137 23.4312C50.2757 24.2811 49.866 25.0896 49.3841 25.8565C48.9023 26.6231 48.3149 27.1716 47.622 27.5018C47.5882 27.5018 47.563 27.5137 47.5463 27.5376C47.3773 27.7262 47.0223 27.8678 46.4813 27.9622C46.4137 27.9622 46.3715 27.9738 46.3549 27.9972C46.3378 27.9972 46.2953 28.003 46.2279 28.0147C46.1602 28.0268 46.0589 28.0445 45.9237 28.068C45.5012 28.1151 45.1209 28.1151 44.783 28.068C44.7154 28.068 44.6392 28.0561 44.5546 28.0322C44.4703 28.0087 44.3943 27.9972 44.3268 27.9972C43.9717 27.9499 43.6126 27.8437 43.2493 27.6783C42.8859 27.5133 42.5522 27.301 42.248 27.0414C42.0957 26.9237 42.0111 26.8708 41.994 26.8823C41.9772 26.8941 41.969 26.8883 41.969 26.8649C41.969 26.8177 41.9268 26.7706 41.8426 26.7233C41.7916 26.6762 41.7409 26.6291 41.6905 26.5818C41.6058 26.5818 41.3775 26.3223 41.0059 25.8033C40.144 24.6705 39.6032 23.5495 39.3834 22.4404C39.3834 22.3694 39.3705 22.2929 39.3452 22.2106C39.3197 22.1279 39.307 22.0631 39.307 22.0157C39.1043 20.9772 39.1128 19.7148 39.3327 18.2282C39.4849 17.1664 39.7214 16.1575 40.0423 15.2017C40.3635 14.2459 40.7691 13.4083 41.2594 12.6889C41.7494 11.969 42.3241 11.3909 42.9833 10.9546C43.6424 10.5178 44.3775 10.2993 45.1885 10.2993Z" fill="#101010"/>
<path d="M54.7675 0.0707725C54.8013 0.0236571 54.9026 0 55.0717 0C55.2405 0 55.359 0.0236571 55.427 0.0707725C55.4608 0.0946284 55.5115 0.177329 55.5791 0.318874C55.6466 0.460419 55.7733 0.684664 55.959 0.99161C56.1449 1.2743 56.3014 1.5395 56.4283 1.7876C56.555 2.03531 56.6353 2.26512 56.6692 2.47704C56.6858 2.52435 56.6857 2.59512 56.6686 2.68935C56.6518 2.78378 56.6773 2.90167 56.7449 3.04322C56.7957 3.1615 56.8084 3.37998 56.7831 3.69846C56.7576 4.01713 56.728 4.44753 56.6942 4.98986C56.6437 5.74529 56.6057 6.50669 56.5803 7.27366C56.5548 8.04023 56.5338 8.80123 56.5171 9.55667C56.5171 9.74553 56.5086 9.9165 56.4915 10.0696C56.4744 10.2228 56.4829 10.3586 56.5171 10.4767C56.5675 10.6183 56.635 10.689 56.7193 10.689C56.8039 10.689 56.9393 10.6419 57.1253 10.5475C57.7844 10.2173 58.3168 10.0521 58.7223 10.0521C59.2462 10.0521 59.7533 10.2644 60.2435 10.689C60.5305 10.925 60.805 11.2258 61.067 11.5916C61.329 11.9574 61.5571 12.3587 61.7516 12.7955C61.9459 13.2319 62.1021 13.6979 62.2203 14.1935C62.3387 14.6887 62.398 15.1723 62.398 15.6447C62.3641 16.4701 62.2163 17.184 61.9543 17.7862C61.6923 18.3879 61.3754 18.9835 61.0038 19.573C60.8685 19.8095 60.7459 20.0044 60.6359 20.1574C60.5261 20.3107 60.4543 20.4465 60.4206 20.5646C60.3867 20.659 60.391 20.7475 60.4331 20.8302C60.4755 20.9125 60.5983 21.0361 60.801 21.2015C61.1389 21.4614 61.4472 21.6914 61.7259 21.8918C62.005 22.0921 62.2544 22.3104 62.4743 22.5462C62.9473 23.0891 63.3656 23.6674 63.7289 24.2813C64.0923 24.8948 64.3332 25.6379 64.4517 26.5111C64.5021 26.9118 64.5063 27.2243 64.4642 27.4486C64.422 27.6728 64.3333 27.844 64.1982 27.9623C64.063 28.1038 63.9277 28.2275 63.7922 28.3336C63.6569 28.4396 63.5303 28.4927 63.4123 28.4927C63.3109 28.4927 63.125 28.2686 62.8547 27.8207C62.6515 27.4903 62.4569 27.1838 62.271 26.9007C62.0853 26.6172 61.8741 26.3103 61.6377 25.9799C61.5192 25.8383 61.3797 25.6791 61.2191 25.5019C61.0587 25.325 60.8856 25.1067 60.6997 24.8475C60.5136 24.6117 60.3275 24.3815 60.1415 24.1573C59.9559 23.933 59.8291 23.7974 59.7617 23.7501C59.6769 23.703 59.6136 23.6617 59.5714 23.6261C59.5293 23.5907 59.4913 23.5613 59.4575 23.5378C59.4575 23.5378 59.4194 23.5026 59.3431 23.4321C59.267 23.3611 59.1867 23.2841 59.1022 23.2014C59.0179 23.1187 58.9377 23.0422 58.8618 22.9716C58.7858 22.9007 58.7479 22.8651 58.7479 22.8651L58.7223 22.8301C58.6884 22.7824 58.6463 22.747 58.5958 22.7235C58.1733 22.275 57.5647 21.8504 56.7705 21.4496C56.2632 21.1661 55.8999 21.0834 55.6805 21.2015C55.5791 21.2488 55.5071 21.3256 55.4646 21.4321C55.4225 21.5383 55.3886 21.6975 55.3632 21.91C55.3378 22.1222 55.3081 22.3995 55.2744 22.7418C55.2405 23.0838 55.1984 23.5144 55.148 24.0332C55.1141 24.3875 55.0718 24.6646 55.021 24.865C54.9704 25.0654 54.9367 25.2129 54.9196 25.3071C54.9196 25.3544 54.9364 25.4666 54.9703 25.6435C55.004 25.8206 55.004 25.9564 54.9703 26.0506C54.9026 26.381 54.8478 26.6582 54.8057 26.8824C54.7635 27.1067 54.7086 27.2778 54.6411 27.3961C54.5397 27.5848 54.4425 27.7794 54.3495 27.9798C54.2564 28.1802 54.1001 28.3746 53.8802 28.5635C53.6946 28.6815 53.4326 28.6464 53.0943 28.4577C52.7563 28.2688 52.486 27.9623 52.2833 27.5377C52.2157 27.4194 52.1775 27.2717 52.1688 27.0947C52.1604 26.9178 52.1393 26.7349 52.1056 26.546C51.9874 25.956 51.941 25.2956 51.9661 24.5644C51.9914 23.8328 52.0128 23.0186 52.0298 22.1216C52.0465 21.7208 52.0928 21.3198 52.1688 20.9184C52.2451 20.5173 52.3001 20.1159 52.334 19.7145C52.3677 19.5259 52.4099 19.296 52.4604 19.0251C52.5112 18.7537 52.5621 18.4525 52.613 18.1217C52.6973 17.4852 52.7816 16.8188 52.8659 16.1226C52.9505 15.426 53.0308 14.7475 53.1068 14.0869C53.1831 13.4265 53.2592 12.8011 53.3352 12.211C53.4115 11.621 53.4749 11.1254 53.5254 10.724C53.5929 10.2523 53.652 9.7511 53.7025 9.2203C53.7534 8.68911 53.7956 8.31756 53.8295 8.10544C53.9309 7.04306 54.0237 6.13454 54.108 5.3795C54.1926 4.62466 54.2518 4.11733 54.2857 3.8575C54.3536 3.31478 54.4129 2.84283 54.4634 2.44205C54.5142 2.04087 54.5312 1.69854 54.5141 1.41545C54.4973 1.29736 54.4805 1.18544 54.4634 1.07988C54.4466 0.973917 54.4466 0.885451 54.4634 0.814281C54.548 0.389646 54.6494 0.141943 54.7675 0.0707725ZM59.2292 13.45C59.111 13.45 58.9504 13.503 58.7473 13.609C58.5446 13.7152 58.3418 13.8392 58.1391 13.9811C57.9363 14.1227 57.7461 14.2762 57.5684 14.4416C57.391 14.6066 57.2603 14.7596 57.176 14.9012C57.1589 14.9246 57.1419 14.9481 57.1248 14.972C57.108 14.9954 57.0828 15.0306 57.049 15.0777C56.9138 15.2193 56.749 15.4966 56.5547 15.9095C56.3602 16.3226 56.2209 16.6353 56.1367 16.8478C56.1196 16.8713 56.0982 16.9007 56.0729 16.9361C56.0478 16.9717 56.0183 17.025 55.9846 17.0959C55.9336 17.2848 55.904 17.4617 55.8958 17.6271C55.8874 17.7921 55.8663 17.9569 55.8325 18.1217C55.7986 18.2871 55.7944 18.4348 55.8194 18.5647C55.8448 18.6947 55.8744 18.7831 55.9083 18.8303C56.0267 18.9953 56.238 19.0304 56.5422 18.936C56.7786 18.8418 57.0448 18.6766 57.3406 18.4406C57.6363 18.2048 57.9235 17.9275 58.2023 17.6088C58.4814 17.2904 58.735 16.9599 58.9632 16.618C59.1913 16.2757 59.3562 15.9628 59.4575 15.6797C59.5589 15.3727 59.6264 15.0839 59.6603 14.8129C59.694 14.5416 59.711 14.3115 59.711 14.1227C59.711 13.8631 59.6771 13.6859 59.6096 13.5915C59.542 13.4973 59.4151 13.45 59.2292 13.45Z" fill="#101010"/>
<path d="M15.6035 35.5555C15.7215 35.4613 15.8566 35.4967 16.009 35.6621C16.0765 35.7565 16.1778 35.8923 16.3131 36.0692C16.4482 36.2463 16.6172 36.5 16.82 36.8302C17.0398 37.1606 17.2593 37.5027 17.4789 37.8568C17.6987 38.2105 17.876 38.588 18.0108 38.9892C18.0279 39.0365 18.0406 39.0719 18.049 39.0957C18.0572 39.1192 18.0701 39.1544 18.0871 39.2015C18.1038 39.2253 18.1459 39.3375 18.2136 39.5379C18.2815 39.7382 18.3618 39.9685 18.4545 40.2281C18.5475 40.4879 18.6362 40.7535 18.7205 41.0249C18.805 41.2958 18.8728 41.5258 18.9238 41.7151C19.2954 43.0834 19.5743 44.3812 19.7604 45.6084C19.7771 45.6557 19.7981 45.7678 19.8236 45.9448C19.849 46.1219 19.887 46.3636 19.9375 46.67C19.9713 46.8115 19.9923 46.9296 20.0007 47.0238C20.0094 47.1183 20.0221 47.201 20.0389 47.2719C20.0726 47.3425 20.0981 47.496 20.1152 47.7324C20.149 47.9683 20.1742 48.1099 20.191 48.157C20.2247 48.2985 20.2584 48.5109 20.2923 48.7939C20.3265 49.077 20.3436 49.2778 20.3436 49.3959C20.3602 49.4194 20.3938 49.6317 20.4444 50.0329C20.4952 50.4342 20.5459 50.8827 20.5965 51.3783C20.6473 51.8735 20.6938 52.3395 20.736 52.7763C20.7784 53.2127 20.7998 53.478 20.7998 53.5723C20.8335 54.0442 20.8926 54.652 20.9769 55.3957C21.0615 56.139 21.1714 57.0059 21.3066 57.9968C21.4588 59.2003 21.535 60.1086 21.535 60.7219C21.535 60.84 21.5306 60.964 21.5219 61.094C21.5135 61.2239 21.501 61.3477 21.4843 61.4654C21.4167 61.7956 21.2813 62.0789 21.0783 62.3155C20.943 62.4332 20.7741 62.492 20.5714 62.492C20.2502 62.492 19.9416 62.3326 19.6459 62.0141C19.3501 61.6954 19.0754 61.3177 18.8218 60.8809C18.5685 60.4448 18.3488 59.979 18.1629 59.4838C17.9772 58.9882 17.8423 58.5633 17.758 58.2091C17.6903 57.9494 17.6438 57.6308 17.6184 57.2532C17.5934 56.8759 17.5723 56.4394 17.5552 55.9436C17.5213 54.7873 17.4538 53.6373 17.3525 52.4932C17.2511 51.3487 17.1073 50.21 16.9213 49.077C16.5496 46.6936 16.2961 45.2661 16.161 44.7941C16.1101 44.5583 16.0594 44.4402 16.009 44.4402C15.9242 44.4402 15.7299 44.7233 15.4258 45.2895C15.3415 45.4549 15.278 45.5907 15.2356 45.6967C15.1934 45.8028 15.1554 45.8913 15.1217 45.9622C15.0203 46.175 14.8934 46.4463 14.7412 46.7765C14.5893 47.1069 14.4203 47.4962 14.2343 47.9447C14.2005 48.0152 14.116 48.2393 13.9809 48.6166C13.9133 48.782 13.8499 48.9297 13.7907 49.0595C13.7315 49.1896 13.6765 49.3132 13.6261 49.4309C13.4908 49.7378 13.4148 49.9267 13.3977 49.9971C13.3809 50.0682 13.3472 50.1509 13.2963 50.2452C13.2458 50.3396 13.2121 50.4104 13.195 50.4575C13.1611 50.5758 13.1232 50.6704 13.0811 50.7414C13.0389 50.812 13.0009 50.906 12.9672 51.0237C12.8991 51.1652 12.8568 51.2833 12.8402 51.3775C12.8063 51.4249 12.7218 51.6254 12.5867 51.9795C12.4344 52.3338 12.3499 52.5224 12.3333 52.5457C12.2148 52.8526 12.0921 53.1538 11.9654 53.449C11.8385 53.7438 11.6991 54.0444 11.5473 54.3508C11.3107 54.7993 11.0234 55.0472 10.6851 55.0943C10.4994 55.0943 10.2967 55.0058 10.0768 54.8287C9.85729 54.6518 9.65041 54.4335 9.45607 54.1742C9.26157 53.9146 9.09684 53.6315 8.96172 53.325C8.82646 53.018 8.74203 52.723 8.70829 52.4399C8.64023 51.9914 8.51351 51.5903 8.32785 51.236C8.02372 50.6698 7.77854 50.0682 7.5926 49.4309C7.4065 48.7937 7.2375 48.1449 7.08572 47.4843C7.00101 47.2012 6.93765 46.9712 6.8955 46.794C6.85336 46.6171 6.81534 46.4813 6.7816 46.3869C6.64634 45.9622 6.53642 45.6672 6.45185 45.5018L6.37553 45.3961L6.29978 45.5018C6.16452 45.573 6.03781 45.8915 5.91934 46.4577C5.81797 46.8352 5.72072 47.2423 5.62775 47.6791C5.53463 48.1154 5.44607 48.5934 5.36178 49.1128C5.3447 49.2544 5.31067 49.449 5.25984 49.6965C5.2093 49.9442 5.17569 50.1271 5.15904 50.2452C5.15904 50.3629 5.14209 50.475 5.10835 50.5815C5.07446 50.6877 5.06592 50.7406 5.08272 50.7406C5.08272 50.7879 5.07845 50.8114 5.07019 50.8114C5.06179 50.8114 5.05766 50.835 5.05766 50.8821C5.05766 50.9533 5.03217 51.1302 4.98134 51.4133C4.96454 51.531 4.93934 51.6843 4.9056 51.8729L4.87997 51.9795C4.87997 52.0739 4.87157 52.1447 4.85491 52.1918C4.83783 52.2862 4.82088 52.3807 4.80422 52.4749C4.78714 52.5693 4.77432 52.6815 4.76607 52.8113C4.75767 52.9413 4.73659 53.1005 4.70285 53.2892C4.65188 53.6667 4.5841 54.0738 4.49953 54.5106C4.41524 54.947 4.36455 55.2595 4.34747 55.4481C4.29692 55.7551 4.27172 55.9203 4.27172 55.9436C4.25464 55.9909 4.24182 56.0913 4.23356 56.2449C4.22516 56.3982 4.20409 56.5811 4.17035 56.7936C3.9676 58.5399 3.79005 59.7905 3.63785 60.5454C3.55356 60.8756 3.44364 61.1587 3.30809 61.3946C3.17283 61.6304 2.97008 61.7485 2.69985 61.7485C2.26046 61.7485 1.64367 61.5125 0.849475 61.0408C0.595754 60.8992 0.409805 60.7519 0.291345 60.5986C0.17317 60.445 0.0887384 60.2384 0.0379087 59.9792C-0.0126362 59.649 -0.0126362 59.2361 0.0379087 58.7403C0.0887384 58.2447 0.143839 57.7904 0.20307 57.3773C0.2623 56.9644 0.325659 56.5928 0.393289 56.2624C0.409948 56.1209 0.460635 55.8615 0.545351 55.4839C0.579095 55.3658 0.638183 55.1179 0.722472 54.7404C0.807046 54.3631 0.883219 54.0327 0.95085 53.7496C1.05222 53.3011 1.20429 52.6109 1.40704 51.6789C1.60978 50.7465 1.88856 49.419 2.24366 47.6966C2.2774 47.5079 2.32809 47.2662 2.39572 46.9714C2.46321 46.6761 2.53938 46.3398 2.6241 45.9622C3.01251 44.0983 3.32489 42.6061 3.56153 41.4853C3.79845 40.3641 3.97586 39.6029 4.09403 39.2015C4.29678 38.4228 4.45739 37.9037 4.57585 37.6445C4.71097 37.432 4.87157 37.3375 5.05766 37.3614C5.27707 37.3614 5.42059 37.491 5.48822 37.7503C5.67417 38.3403 5.88973 38.8182 6.13462 39.184C6.3798 39.5498 6.67994 39.9215 7.03504 40.2989C7.30527 40.5587 7.55871 40.8599 7.79534 41.2022C8.03184 41.5441 8.26833 41.9155 8.50497 42.3163C8.5558 42.4346 8.61916 42.5528 8.69519 42.6709C8.7715 42.7886 8.8518 42.9419 8.93609 43.1306C9.10496 43.461 9.18953 43.6615 9.18953 43.7325C9.18953 43.756 9.19807 43.7794 9.21516 43.8033C9.2489 43.8267 9.2741 43.8975 9.2909 44.0156C9.34173 44.1572 9.42617 44.3993 9.54434 44.7416C9.6628 45.0836 9.82341 45.5495 10.0262 46.1396C10.1784 46.6115 10.2713 46.8473 10.3052 46.8473C10.339 46.8473 10.4403 46.6231 10.6093 46.1746C10.6936 45.962 10.8033 45.6847 10.9385 45.3428C11.0741 45.0009 11.2347 44.5937 11.4203 44.1214C11.5892 43.6967 11.733 43.3488 11.8515 43.0773C11.9699 42.8059 12.0544 42.5994 12.1049 42.4578C12.122 42.4346 12.1895 42.2694 12.3077 41.9624C12.3922 41.7266 12.4429 41.5966 12.4597 41.5728C12.4768 41.5495 12.4895 41.5143 12.4979 41.467C12.5061 41.4199 12.5357 41.3372 12.5867 41.2189C12.6881 41.007 12.7556 40.8537 12.7895 40.7593C13.0093 40.2398 13.1782 39.8327 13.2963 39.5379C13.4148 39.2432 13.4908 39.0723 13.5247 39.025C13.5414 39.025 13.5794 38.9542 13.6386 38.8126C13.6979 38.6707 13.8034 38.4345 13.9553 38.1041C14.0061 38.0099 14.0527 37.9216 14.0948 37.8393C14.1372 37.7566 14.1754 37.6799 14.2093 37.6087C14.2936 37.4672 14.3398 37.3849 14.3482 37.3614C14.3569 37.3375 14.4288 37.2077 14.5641 36.9718C14.9528 36.2402 15.2993 35.7682 15.6035 35.5555Z" fill="#101010"/>
<path d="M30.8643 43.4138C31.2193 43.4138 31.5953 43.4846 31.9925 43.6261C32.3896 43.7677 32.7741 43.9625 33.1458 44.2106C33.5174 44.4583 33.8681 44.7472 34.1977 45.0774C34.5272 45.4078 34.8102 45.7618 35.0469 46.1398C35.4189 46.7532 35.6682 47.4198 35.7947 48.1397C35.9214 48.8591 35.9003 49.5018 35.7314 50.068C35.6638 50.2807 35.5624 50.5109 35.4273 50.759C35.2921 51.0068 35.0977 51.26 34.8441 51.5193C34.7936 51.5666 34.7177 51.6433 34.6163 51.7499C34.515 51.856 34.3797 52.0033 34.2108 52.192C34.0414 52.4047 33.9147 52.5345 33.8304 52.5816C33.7794 52.629 33.7371 52.6761 33.7034 52.7232C33.6866 52.7232 33.6191 52.7705 33.5006 52.8647C33.315 53.0063 33.1333 53.1478 32.9556 53.2894C32.7782 53.4309 32.5965 53.549 32.4106 53.6432C32.2078 53.7615 31.9965 53.8679 31.7767 53.9621C31.5571 54.0565 31.3376 54.151 31.1178 54.2452C30.8303 54.3396 30.5302 54.4046 30.2173 54.44C29.9048 54.475 29.5882 54.4925 29.2674 54.4925C28.8952 54.4925 28.5699 54.469 28.2912 54.4217C28.0125 54.3746 27.7885 54.2921 27.6192 54.1744C27.3826 54.009 27.1884 53.9382 27.0366 53.9621C26.8676 53.9856 26.7322 54.0915 26.6305 54.2802C26.5123 54.469 26.4068 54.8112 26.3139 55.3068C26.2207 55.8026 26.1829 56.2274 26.2 56.5815C26.2337 57.4069 26.5209 57.9496 27.0616 58.2092C27.3658 58.3275 27.7377 58.3866 28.1773 58.3866C28.735 58.3866 29.3011 58.3039 29.8756 58.1385C30.0108 58.0914 30.1373 58.0562 30.2555 58.0327C30.374 58.0089 30.4839 57.9969 30.5853 57.9969C30.5853 57.9969 30.6866 57.9617 30.8894 57.8912C31.2614 57.7963 31.6417 57.7017 32.0301 57.6073C32.4188 57.5131 32.8077 57.4186 33.1965 57.3242C33.788 57.23 34.3289 57.0648 34.8191 56.8288C35.0556 56.7111 35.2838 56.6523 35.5036 56.6523C35.6388 56.6523 35.7232 56.6759 35.7571 56.723C35.8922 56.8175 35.9429 56.9234 35.9091 57.0411C35.8752 57.1594 35.7992 57.2773 35.6808 57.395C35.6302 57.5365 35.5247 57.7256 35.3641 57.9619C35.2035 58.1979 35.0301 58.4397 34.8441 58.6872C34.6585 58.9349 34.4809 59.1649 34.3116 59.3774C34.1426 59.5901 34.0075 59.7436 33.9061 59.8378C33.8218 59.9084 33.7797 59.9555 33.7797 59.9794C33.7626 59.9794 33.7455 59.9913 33.7284 60.0151C33.7116 60.0386 33.678 60.0738 33.6276 60.1209C32.9513 60.7582 32.2204 61.2298 31.4344 61.5363C30.6488 61.8433 29.8503 61.9968 29.039 61.9968C28.346 61.9968 27.7673 61.9318 27.3025 61.8019C26.8378 61.6719 26.3096 61.3594 25.7181 60.8644C25.1774 60.3921 24.7255 59.9084 24.3621 59.4132C23.9988 58.9176 23.7072 58.2212 23.4873 57.3242C23.2507 56.3568 23.2591 55.0235 23.5124 53.3244C23.7493 51.8379 24.1508 50.4342 24.7169 49.113C25.283 47.7914 25.9717 46.6232 26.7831 45.6086C26.9859 45.3255 27.1632 45.1249 27.3151 45.0066C27.3322 44.9833 27.349 44.9658 27.3658 44.9541C27.3828 44.942 27.3996 44.9243 27.4164 44.9008C27.501 44.7593 27.7799 44.5468 28.2531 44.2631C28.6418 44.0039 29.0644 43.7977 29.5208 43.6444C29.9772 43.4908 30.4249 43.4138 30.8643 43.4138ZM31.5489 46.7409C31.4136 46.7177 31.2955 46.7002 31.1941 46.6884C31.0927 46.6763 30.991 46.6701 30.8894 46.6701C30.2982 46.6701 29.7659 46.9417 29.2924 47.4844C28.8193 48.0273 28.4138 48.6174 28.076 49.2545C28.0421 49.3722 28.0083 49.4547 27.9746 49.5018C27.9407 49.5492 27.9153 49.5845 27.8983 49.6084C27.5603 50.34 27.3914 50.7765 27.3914 50.9181C27.3914 51.0596 27.4589 51.1541 27.5941 51.2012C27.7293 51.2485 27.8392 51.272 27.9239 51.272C28.3631 51.272 29.0644 51.0362 30.0277 50.5642C30.2136 50.4461 30.3996 50.334 30.5853 50.2279C30.7712 50.1213 30.991 49.9738 31.2448 49.7849C31.684 49.4786 32.0051 49.2192 32.2078 49.0064C32.5119 48.7233 32.6978 48.4639 32.7654 48.2279C32.8838 47.8977 32.8417 47.6144 32.6389 47.3779C32.5205 47.2363 32.4147 47.1361 32.3217 47.0773C32.229 47.0184 32.1489 46.9771 32.0814 46.9532C32.098 46.9532 32.0388 46.9298 31.9037 46.8825C31.8361 46.8592 31.7768 46.8359 31.726 46.8125C31.6755 46.7886 31.6164 46.7648 31.5489 46.7409Z" fill="#101010"/>
<path d="M45.592 43.8384C45.9978 43.8384 46.4036 44.0274 46.8091 44.4054C47.2146 44.7829 47.5103 45.2312 47.6964 45.75C47.8652 46.1985 47.9498 46.8947 47.9498 47.8382C47.9327 48.4988 47.9114 49.0889 47.886 49.6083C47.861 50.1274 47.8229 50.5876 47.7721 50.9888C47.7553 51.0361 47.7385 51.1246 47.7214 51.2544C47.7046 51.3838 47.6878 51.5428 47.6707 51.7315C47.6369 51.9208 47.6201 52.0685 47.6201 52.1744C47.6201 52.2806 47.6201 52.3454 47.6201 52.3692C47.6033 52.4398 47.5781 52.5931 47.5443 52.8289C47.5443 52.8527 47.5358 52.9827 47.5187 53.2185C47.5019 53.4545 47.4851 53.7082 47.468 53.9795C47.4512 54.2511 47.4344 54.4988 47.4173 54.723C47.4005 54.9473 47.3923 55.0711 47.3923 55.0944V55.3775C47.3752 55.4486 47.3666 55.5254 47.3666 55.6081C47.3666 55.6904 47.3582 55.7906 47.3416 55.9087C47.2568 56.9468 47.4341 57.5364 47.8735 57.678C48.1947 57.7724 48.5411 57.6545 48.9129 57.3241C49.0988 57.1593 49.2426 57.1593 49.344 57.3241C49.6481 57.7726 49.6481 58.4215 49.344 59.2708C49.1074 59.9552 48.8031 60.5097 48.4311 60.9343C48.0593 61.3593 47.5862 61.5721 47.0118 61.5721C46.5724 61.5721 46.1923 61.4599 45.8711 61.2357C45.5499 61.0114 45.2835 60.7107 45.072 60.3331C44.8609 59.9558 44.7047 59.5133 44.6033 59.006C44.5019 58.4986 44.4512 57.9617 44.4512 57.3949C44.4512 57.3245 44.4639 57.1122 44.4894 56.7579C44.5147 56.4039 44.5444 55.991 44.5782 55.519C44.612 55.0473 44.65 54.5636 44.6922 54.0678C44.7343 53.5722 44.7722 53.1475 44.8061 52.7939C44.8231 52.6758 44.8399 52.5164 44.8567 52.316C44.8738 52.1156 44.8906 51.8736 44.9074 51.59C44.9416 51.2598 44.9628 50.9886 44.9712 50.7765C44.9795 50.564 44.9923 50.4105 45.0094 50.3161C45.0598 49.8204 45.0978 49.431 45.1233 49.1479C45.1486 48.8648 45.1529 48.7113 45.1358 48.6875C45.0515 48.5698 44.9584 48.5463 44.8567 48.6167C44.7891 48.6406 44.7384 48.6762 44.7047 48.7233C44.6879 48.7233 44.6457 48.7706 44.5782 48.8648C44.1389 49.3368 43.6995 49.8324 43.2598 50.3518C42.8204 50.8709 42.4571 51.4727 42.1697 52.1569C42.1021 52.2985 42.0304 52.5402 41.9545 52.8821C41.8784 53.2241 41.8065 53.6135 41.7386 54.0503C41.671 54.4867 41.6118 54.9469 41.5609 55.4308C41.5104 55.9142 41.4768 56.3802 41.4601 56.8287C41.443 57.1357 41.4134 57.484 41.3713 57.8736C41.3291 58.2628 41.2656 58.6581 41.1811 59.0592C41.0968 59.46 40.9995 59.8375 40.8895 60.1916C40.7797 60.5453 40.6487 60.8401 40.4965 61.0767C40.2432 61.4301 39.9728 61.607 39.6855 61.607C39.4828 61.607 39.2672 61.5363 39.0391 61.3947C38.8109 61.2532 38.5954 61.0703 38.3927 60.846C38.1899 60.6218 38.0209 60.3681 37.8858 60.085C37.7506 59.802 37.6661 59.5189 37.6324 59.2358C37.5814 58.8817 37.5984 58.3624 37.6831 57.678C37.6997 57.5603 37.7164 57.4249 37.7332 57.2716C37.7503 57.118 37.7756 56.9468 37.8095 56.7579C37.8432 56.5693 37.8898 56.2862 37.949 55.9087C38.0083 55.5313 38.0716 55.1302 38.1393 54.7055C38.2067 54.2805 38.2744 53.8674 38.342 53.4666C38.4095 53.0654 38.4686 52.7231 38.5191 52.44C38.6037 51.8973 38.6799 51.449 38.7475 51.0953C38.815 50.7413 38.8657 50.4107 38.8996 50.1037C38.9504 49.7497 38.9673 49.3012 38.9502 48.7583C38.9334 47.9563 38.866 47.4609 38.7475 47.272C38.6461 47.0834 38.5109 46.977 38.342 46.9532C38.0716 46.8828 37.8182 46.8947 37.5817 46.9889C37.4461 47.0595 37.3445 47.0713 37.277 47.0239C37.1927 46.9536 37.1292 46.8416 37.0868 46.6884C37.0446 46.5347 37.0489 46.4106 37.0999 46.3162C37.235 45.915 37.4758 45.5846 37.822 45.3254C38.1686 45.0658 38.5026 44.9358 38.8238 44.9358C39.2122 44.9358 39.5542 45.0773 39.8501 45.3604C40.1458 45.6435 40.4119 45.9858 40.6486 46.387C40.7331 46.5053 40.7924 46.6057 40.8262 46.6884C40.86 46.7707 40.9023 46.8353 40.9533 46.8824C41.105 47.0951 41.2571 47.2013 41.4094 47.2013C41.5275 47.2013 41.6543 47.107 41.7899 46.9182C42.0264 46.588 42.2925 46.2399 42.5883 45.8741C42.8841 45.5083 43.2009 45.1781 43.5389 44.8833C43.8767 44.5881 44.2189 44.3401 44.5652 44.1398C44.9117 43.939 45.254 43.8384 45.592 43.8384Z" fill="#101010"/>
<path d="M61.2093 43.4844C61.3952 43.4844 61.5938 43.5613 61.805 43.715C62.0164 43.8683 62.2108 44.0629 62.3882 44.2987C62.5659 44.5346 62.7095 44.8002 62.8193 45.0954C62.9289 45.3903 62.9839 45.6791 62.9839 45.9622C62.9839 46.0805 62.9753 46.2576 62.9583 46.4934C62.9415 46.7294 62.8911 47.0242 62.8068 47.3777C62.4685 48.8408 62.2654 49.9618 62.1979 50.7405C62.1979 50.7405 62.181 50.8586 62.1473 51.0944C62.0967 51.826 62.0715 52.5341 62.0715 53.2184C62.0715 53.9028 62.0883 54.5517 62.1222 55.165C62.1897 55.8256 62.3039 56.3507 62.4645 56.7403C62.6251 57.1296 62.9756 57.324 63.5164 57.324C63.8205 57.324 64.0993 57.2061 64.353 56.9701C64.4205 56.923 64.4712 56.8936 64.5051 56.8818C64.5388 56.8703 64.5726 56.8524 64.6065 56.8286C64.6739 56.8053 64.7753 56.7936 64.9106 56.7936C65.0457 56.7936 65.1133 56.8053 65.1133 56.8286C65.1133 57.2061 65.0584 57.6132 64.9487 58.05C64.839 58.4864 64.6953 58.911 64.5176 59.3239C64.3402 59.737 64.1417 60.1205 63.9219 60.4745C63.7023 60.8286 63.491 61.1117 63.288 61.3238C63.1698 61.4419 63.0558 61.5186 62.9457 61.5536C62.836 61.589 62.7135 61.5952 62.5784 61.5719C62.0205 61.4536 61.5051 61.1942 61.0321 60.7934C60.559 60.3922 60.128 59.9201 59.7393 59.3772C59.6209 59.2118 59.4728 59.0645 59.2951 58.935C59.1177 58.8052 59.0038 58.7639 58.9534 58.811C58.8181 58.9287 58.6914 59.0702 58.573 59.2356C58.4548 59.401 58.3451 59.5782 58.2438 59.7668C58.1082 59.9789 57.9221 60.2207 57.6856 60.492C57.449 60.7636 57.2295 60.9934 57.0267 61.1823C56.6716 61.5834 56.2829 61.8727 55.8603 62.0498C55.438 62.2268 55.0072 62.3154 54.5675 62.3154C54.111 62.3154 53.6758 62.2208 53.2616 62.0315C52.8477 61.8427 52.4633 61.5771 52.1083 61.2348C51.7537 60.8928 51.4495 60.4801 51.196 59.9966C50.9427 59.5128 50.7483 58.9641 50.6128 58.3506C50.5622 58.0675 50.5242 57.7492 50.4989 57.3955C50.4734 57.0415 50.4775 56.6401 50.5114 56.1916C50.6465 54.4927 50.8112 52.947 51.0057 51.5548C51.2001 50.1628 51.441 48.7231 51.7285 47.2361C51.7622 47.0475 51.7874 46.8648 51.8042 46.6882C51.8213 46.5113 51.8466 46.3284 51.8805 46.1395C51.9651 45.8087 52.0243 45.5254 52.0582 45.2895C52.092 45.0537 52.151 44.8648 52.2353 44.7233C52.4718 44.2748 52.7001 44.0506 52.9199 44.0506C53.0384 44.0506 53.1735 44.1038 53.3254 44.2104C53.4776 44.3165 53.6297 44.4464 53.7816 44.6C53.9338 44.7533 54.0733 44.9125 54.2002 45.0779C54.3269 45.243 54.4156 45.3841 54.4661 45.5018C54.5336 45.6672 54.5802 45.8268 54.6057 45.9805C54.631 46.1338 54.6521 46.2811 54.6689 46.4226C54.686 46.5403 54.6945 46.6642 54.6945 46.794C54.6945 46.924 54.7028 47.0713 54.7196 47.2361C54.7196 47.3073 54.7026 47.4842 54.6689 47.7673C54.635 48.0504 54.5927 48.3514 54.5419 48.6699C54.4913 48.9885 54.4451 49.2893 54.4029 49.5724C54.3608 49.8555 54.3312 50.0444 54.3141 50.1386C54.01 52.1447 53.7903 53.6786 53.6551 54.7404C53.5199 55.8024 53.4945 56.6163 53.5788 57.1824C53.6126 57.5128 53.6506 57.7311 53.6927 57.8377C53.7352 57.9438 53.7903 58.0204 53.8579 58.0675C54.0268 58.1858 54.2043 58.174 54.3904 58.0325C54.8296 57.7256 55.2393 57.3244 55.6194 56.8286C55.9999 56.333 56.3548 55.7904 56.6844 55.2008C57.0139 54.6108 57.3098 53.9913 57.5717 53.3424C57.8337 52.6935 58.0491 52.0741 58.2181 51.4841C58.4717 50.6109 58.7082 49.7263 58.9278 48.8297C59.1476 47.9327 59.3505 47.1421 59.5366 46.4576C59.6717 45.9149 59.79 45.4724 59.8914 45.1304C59.9928 44.7885 60.0941 44.5348 60.1955 44.3694C60.3306 44.1098 60.4742 43.8975 60.6261 43.7325C60.7783 43.5671 60.9726 43.4844 61.2093 43.4844Z" fill="#101010"/>
<path d="M74.6118 50.9756C74.884 50.9906 75.0996 51.019 75.2588 51.0607C75.5761 51.145 75.8497 51.376 76.0795 51.7533C76.3091 52.1309 76.4714 52.5235 76.5664 52.931C76.5853 52.9937 76.5996 53.0406 76.6091 53.0718C76.6189 53.1026 76.6212 53.1366 76.6159 53.1736C76.6854 53.269 76.7123 53.5254 76.6968 53.9425C76.7028 54.0974 76.6985 54.2542 76.6837 54.4133C76.6689 54.5719 76.6343 54.7492 76.5801 54.9453C76.542 55.2226 76.4878 55.419 76.4172 55.5345C76.3807 55.6013 76.2218 55.8367 75.9405 56.2406C75.6591 56.6446 75.2499 57.2056 74.7132 57.9233C74.674 58.0092 74.6053 58.1109 74.507 58.2286C74.4086 58.3459 74.3437 58.4195 74.3122 58.4497C74.171 58.6803 74.0303 58.8823 73.8902 59.0556C73.7501 59.2286 73.5986 59.4085 73.4357 59.5956C73.3836 59.6773 73.3446 59.7385 73.3184 59.7793C73.2922 59.8202 73.27 59.8572 73.2518 59.8906C73.1864 59.9691 73.1386 60.0186 73.1083 60.0393C73.0778 60.06 73.0536 60.0874 73.0354 60.1212C72.8466 60.3959 72.6683 60.6212 72.5006 60.7971C72.3327 60.9727 72.1845 61.1293 72.0558 61.2671C71.828 61.5323 71.6326 61.7581 71.4698 61.9446C71.3072 62.1307 71.1773 62.2782 71.0802 62.3867C71.0176 62.4462 70.9573 62.5114 70.8997 62.5823C70.8419 62.6535 70.7802 62.7283 70.7146 62.8066C70.5547 62.9748 70.3512 63.16 70.104 63.3624C69.8572 63.5644 69.5761 63.8153 69.2606 64.1147L69.1427 64.2268C69.1245 64.2598 69.1139 64.2856 69.1114 64.3047C69.1219 64.3266 69.1612 64.3658 69.2293 64.4224C69.2972 64.4787 69.3376 64.5083 69.3506 64.5115C69.3638 64.5153 69.3803 64.5198 69.4001 64.525C69.4198 64.5304 69.4641 64.5322 69.5328 64.5306C69.5593 64.5381 69.5992 64.5487 69.6524 64.5624C69.7208 64.562 69.8369 64.5644 70.001 64.5695C70.1069 64.5978 70.2358 64.6322 70.3877 64.6729C70.5399 64.7133 70.7113 64.7395 70.9019 64.7516C70.9418 64.7624 70.9894 64.7655 71.0449 64.7612C71.1003 64.757 71.1544 64.7618 71.2072 64.7755C71.3974 64.7878 71.5297 64.823 71.6042 64.8812C72.4744 65.0361 73.1111 65.1433 73.5143 65.2025C73.9176 65.2619 74.1892 65.2812 74.3293 65.2606C74.3874 65.2379 74.4395 65.2327 74.4859 65.2454C74.5322 65.2578 74.5751 65.2689 74.6146 65.2788C74.7072 65.3039 74.8097 65.4077 74.9222 65.5906C75.2714 66.0476 75.5162 66.515 75.6563 66.9925C75.8966 67.7457 75.9213 68.4708 75.7303 69.1674C75.5108 69.9705 75.2041 70.3578 74.81 70.3291C74.6729 70.3311 74.4889 70.2729 74.2581 70.1542C74.0169 70.013 73.7985 69.9071 73.6026 69.8361C73.4067 69.7649 73.2358 69.7101 73.09 69.6715C73.0213 69.6715 72.9371 69.6582 72.8377 69.6318C72.7386 69.6057 72.6692 69.5874 72.6293 69.5769C72.4523 69.5683 72.2501 69.5435 72.0228 69.5021C71.7952 69.4608 71.5479 69.4141 71.2807 69.3622L70.7254 69.2143C70.5901 69.1972 70.4757 69.1811 70.382 69.1658C70.2881 69.1509 70.2083 69.1348 70.1422 69.1173C70.0336 69.1071 69.9429 69.0922 69.87 69.0727C69.7971 69.053 69.7472 69.0397 69.7208 69.033C69.4932 68.9916 69.2579 68.9576 69.0146 68.9312C68.7715 68.9051 68.5352 68.8807 68.3055 68.858C68.2363 68.8584 68.1224 68.8377 67.9638 68.796C67.736 68.7541 67.509 68.7318 67.2832 68.7292C67.0577 68.7264 66.8353 68.7248 66.6163 68.7244C66.4913 68.7292 66.3135 68.7487 66.0827 68.7833C65.8517 68.8177 65.5781 68.8407 65.2614 68.8525L64.9328 68.8509L64.5979 68.7332C64.495 68.6865 64.401 68.6469 64.316 68.6147C64.2313 68.5829 64.1716 68.5431 64.1372 68.4954C63.8607 68.2117 63.6316 67.83 63.4498 67.3503C63.2682 66.8712 63.1338 66.3999 63.0466 65.9365C62.9668 65.5134 62.9351 65.1413 62.9514 64.82C62.9681 64.4984 63.033 64.2761 63.1462 64.1536C63.2954 63.964 63.6582 63.7159 64.2346 63.4093C64.7221 63.1561 65.2141 62.8416 65.7108 62.4662C66.2077 62.0909 66.6985 61.6854 67.183 61.2496C67.6674 60.8138 68.1381 60.355 68.5948 59.8731C69.0516 59.3912 69.4764 58.9155 69.8694 58.4457C69.9009 58.4155 69.9225 58.3829 69.9343 58.3479C69.946 58.3129 69.9597 58.2875 69.9753 58.2716C69.9913 58.2573 70.0115 58.2346 70.0363 58.2032C70.0613 58.1714 70.0895 58.1404 70.1211 58.1101C70.1681 58.0656 70.2165 58.0115 70.2664 57.9479C70.3563 57.8954 70.7052 57.5 71.3131 56.7615C71.3628 56.6985 71.4256 56.6148 71.5017 56.5102C71.5775 56.4058 71.6799 56.2844 71.8086 56.146C71.9556 55.9742 72.0702 55.8373 72.1526 55.7349C72.2349 55.6327 72.2957 55.5391 72.3349 55.4542C72.4153 55.2645 72.4381 55.0979 72.4032 54.9548L72.3588 54.8276L72.1441 54.7425C72.078 54.725 72.0051 54.7057 71.9254 54.6844C71.8459 54.6634 71.7586 54.6495 71.6634 54.6431C71.5689 54.6367 71.4917 54.6256 71.4322 54.6097C71.3725 54.5938 71.3214 54.5898 71.279 54.5978C71.2501 54.6095 71.2091 54.6085 71.156 54.5946C71.1031 54.5803 71.0426 54.5737 70.9743 54.5747C70.8342 54.5944 70.6647 54.6021 70.4663 54.5978C70.2681 54.593 70.0611 54.5763 69.8455 54.5477C69.6302 54.5186 69.4259 54.4833 69.2327 54.4419C69.0398 54.4002 68.8705 54.3598 68.7247 54.321C68.46 54.2507 68.1885 54.1546 67.9103 54.0332C67.6323 53.9113 67.3692 53.7553 67.1209 53.5648C66.8726 53.374 66.655 53.1342 66.4682 52.8452C66.2814 52.5557 66.1534 52.2104 66.0844 51.809C66.06 51.6877 66.0531 51.5901 66.0633 51.5164C66.0941 51.3907 66.1521 51.2913 66.2376 51.2182C66.3233 51.145 66.4201 51.0894 66.528 51.0512C66.6358 51.0126 66.7444 50.9935 66.8538 50.9939C66.9634 50.9945 67.058 51.0055 67.1374 51.0265C67.3493 51.0834 67.5483 51.1076 67.7348 51.0997C67.9212 51.0917 68.1198 51.0677 68.3306 51.0273C68.3438 51.0311 68.3747 51.0301 68.4234 51.0241C68.4724 51.0178 68.5392 51.0065 68.6239 50.99C68.8747 50.9619 69.219 50.9534 69.6564 50.9645C70.0938 50.9752 70.6215 50.9764 71.2397 50.9685C71.3504 50.9595 71.4427 50.9603 71.5165 50.9709C71.5905 50.981 71.642 50.9802 71.6714 50.9685C71.6976 50.9754 71.7239 50.9826 71.7505 50.99C71.8086 50.9667 71.8456 50.9478 71.8616 50.9335C71.9541 50.9579 72.0111 50.9681 72.0324 50.9637C72.0537 50.9595 72.1196 50.953 72.2301 50.9438C72.2725 50.9365 72.3248 50.9315 72.3867 50.9287C72.4485 50.9261 72.5127 50.9335 72.5792 50.951C72.6186 50.9617 72.6904 50.9619 72.7945 50.9518C72.8988 50.9413 72.9962 50.9574 73.0866 51.0003C73.2768 51.0126 73.4466 51.0241 73.5958 51.0353C73.7453 51.046 73.8687 51.0454 73.966 51.0337C73.9924 51.0407 74.0725 51.0329 74.2057 51.0106C74.3393 50.9884 74.4747 50.9768 74.6118 50.9756Z" fill="#101010"/>
<mask id="mask0_126_4586" style="mask-type:luminance" maskUnits="userSpaceOnUse" x="34" y="2" width="5" height="6">
<path d="M34.1787 2.38452H38.8543V7.38134H34.1787V2.38452Z" fill="white"/>
</mask>
<g mask="url(#mask0_126_4586)">
<mask id="mask1_126_4586" style="mask-type:luminance" maskUnits="userSpaceOnUse" x="34" y="2" width="5" height="6">
<path d="M34.1807 4.39836C34.1807 4.39836 34.2009 4.28007 34.2111 4.22341C34.2212 4.16676 34.2416 4.05324 34.2416 4.04847C34.2416 4.04847 34.2822 3.9445 34.3025 3.88784C34.3228 3.83576 34.3601 3.73178 34.3601 3.73178C34.3635 3.73178 34.3635 3.73178 34.3635 3.73178C34.3635 3.72701 34.4176 3.63735 34.4481 3.59481C34.4751 3.5475 34.5328 3.46241 34.5328 3.45764C34.5328 3.45764 34.6038 3.39144 34.6377 3.35844C34.6749 3.32524 34.7426 3.25447 34.7461 3.25447C34.7461 3.25447 34.8272 3.21192 34.8645 3.19284C34.9051 3.16938 34.9559 3.16461 34.9864 3.12664C35.0134 3.09364 35.0439 2.98012 35.0439 2.98012C35.0473 2.97555 35.1049 2.89504 35.1319 2.85249C35.1624 2.80995 35.2166 2.72487 35.22 2.72487C35.22 2.72029 35.2911 2.65867 35.325 2.62566C35.3589 2.59724 35.4299 2.53104 35.4299 2.53104C35.4333 2.53104 35.5112 2.49326 35.5518 2.47438C35.5889 2.45549 35.6668 2.41772 35.6702 2.41772C35.6702 2.41772 35.755 2.40818 35.7955 2.40341C35.8395 2.39884 35.9208 2.38452 35.9208 2.38452C35.9243 2.38452 36.0054 2.40341 36.0461 2.41295C36.0867 2.42249 36.1713 2.44138 36.1713 2.44138C36.1747 2.44138 36.432 2.55012 36.5133 2.61155C36.5674 2.64932 36.5742 2.68709 36.6352 2.73441C36.7807 2.85249 37.3089 3.11252 37.3969 3.22127C37.4207 3.2497 37.4104 3.27792 37.4308 3.29701C37.4511 3.32047 37.5323 3.33001 37.5357 3.33001C37.5357 3.33001 37.6035 3.3821 37.6372 3.40555C37.6711 3.42921 37.7389 3.4813 37.7389 3.4813C37.7423 3.4813 37.7964 3.55227 37.8269 3.59004C37.8573 3.62304 37.9114 3.69401 37.9149 3.69401C37.9149 3.69878 37.9623 3.79321 37.9792 3.83098C37.9927 3.85464 38.0063 3.88307 38.0131 3.89718C38.0165 3.90196 38.0165 3.90196 38.0198 3.90673C38.0367 3.93515 38.1146 4.07213 38.1485 4.16676C38.179 4.25184 38.179 4.36516 38.223 4.44567C38.2704 4.5401 38.4363 4.68662 38.4363 4.68662C38.4397 4.69139 38.4972 4.76713 38.5277 4.8049C38.5581 4.84267 38.6157 4.92299 38.6157 4.92299C38.6191 4.92299 38.6191 4.92299 38.6191 4.92299C38.6191 4.92776 38.6631 5.02239 38.6834 5.0695C38.7071 5.11682 38.7511 5.21145 38.7511 5.21145C38.7511 5.21622 38.7783 5.32019 38.7918 5.37685C38.8053 5.42893 38.8324 5.53748 38.8324 5.53748C38.8324 5.54225 38.8425 5.65099 38.8459 5.71242C38.8493 5.76928 38.8561 5.87782 38.8561 5.88259C38.8561 5.88259 38.8425 5.99611 38.8392 6.05276C38.8324 6.10962 38.8188 6.22293 38.8188 6.22293C38.8188 6.22771 38.7884 6.33168 38.7714 6.38376C38.7579 6.43565 38.7274 6.53962 38.724 6.54439C38.724 6.54439 38.6766 6.63425 38.653 6.68156C38.6292 6.72888 38.5819 6.81854 38.5785 6.82331C38.5785 6.82331 38.5176 6.89428 38.4837 6.93205C38.4532 6.96982 38.3923 7.04079 38.3888 7.04079C38.3888 7.04557 38.3178 7.09288 38.2805 7.11634C38.2433 7.14477 38.1689 7.19208 38.1689 7.19208C38.1655 7.19685 38.0876 7.22051 38.047 7.22985C38.0063 7.24397 37.9284 7.26762 37.9284 7.26762C37.9251 7.26762 37.9251 7.26762 37.9251 7.26762C37.9251 7.26762 37.8438 7.26305 37.8032 7.26305C37.7625 7.26305 37.6812 7.25828 37.6812 7.25828C37.6779 7.25828 37.6001 7.22508 37.5593 7.21097C37.5222 7.19685 37.4443 7.16842 37.4409 7.16842V7.16365C37.4409 7.16365 37.3698 7.11177 37.3325 7.08334C37.2988 7.05491 37.2276 6.99825 37.2276 6.99825C37.2242 6.99825 37.2175 6.98414 37.2107 6.97937C37.2005 6.97459 37.1632 6.98414 37.16 6.98414C37.1565 6.98871 37.0956 7.18731 37.0177 7.23462C36.889 7.31494 36.4253 7.17319 36.3948 7.18254C36.3914 7.18254 36.3948 7.18254 36.3914 7.18254C36.3813 7.19208 36.3204 7.25351 36.2899 7.26762C36.2695 7.28194 36.2526 7.27717 36.2322 7.28651C36.2153 7.29605 36.2017 7.31494 36.1781 7.31971C36.1476 7.33382 36.1002 7.33382 36.0629 7.3386C36.0224 7.34814 35.9784 7.37637 35.9479 7.37637C35.9243 7.38114 35.9073 7.36702 35.8904 7.36702C35.87 7.36702 35.8531 7.38114 35.8294 7.37637C35.799 7.37637 35.755 7.35271 35.7142 7.34337C35.6771 7.33382 35.6297 7.3386 35.5958 7.32905C35.5754 7.31971 35.5619 7.30082 35.5449 7.29128C35.5247 7.28651 35.5078 7.28651 35.4874 7.27717C35.457 7.25828 35.4061 7.2062 35.3859 7.19208C35.3724 7.18254 35.369 7.18254 35.3589 7.17797C35.3419 7.16842 35.3216 7.16365 35.2979 7.15888C35.2606 7.14954 35.1692 7.12588 35.1692 7.12588C35.1658 7.12588 35.0879 7.0738 35.0473 7.05034C35.01 7.02191 34.9321 6.97459 34.9289 6.96982C34.9289 6.96982 34.8611 6.89428 34.8272 6.85651C34.7935 6.81854 34.7257 6.74299 34.7257 6.74299C34.7223 6.74299 34.6716 6.64837 34.6444 6.59648C34.6173 6.54916 34.5665 6.45454 34.5632 6.45454C34.5632 6.44996 34.5294 6.34122 34.5124 6.28436C34.4955 6.23248 34.4583 6.11896 34.4583 6.11896C34.4583 6.11419 34.4446 5.99611 34.4379 5.93945C34.4278 5.87782 34.4142 5.75973 34.4142 5.75973C34.4142 5.75496 34.421 5.70308 34.4176 5.68876C34.4142 5.68419 34.4109 5.67942 34.4109 5.67942C34.4109 5.67942 34.3668 5.57545 34.3431 5.52813C34.3228 5.47605 34.2788 5.37207 34.2755 5.37207C34.2755 5.3673 34.2517 5.25399 34.2382 5.19713C34.2247 5.14047 34.2009 5.02696 34.2009 5.02696C34.2009 5.02239 34.1942 4.8711 34.1942 4.84267C34.1942 4.8379 34.1942 4.8379 34.1942 4.82856C34.1908 4.81424 34.1807 4.76236 34.1807 4.75759C34.1807 4.75759 34.1807 4.6395 34.1807 4.57787C34.1807 4.52121 34.1807 4.39836 34.1807 4.39836Z" fill="white"/>
</mask>
<g mask="url(#mask1_126_4586)">
<path d="M34.0449 2.19556H38.9919V7.57029H34.0449V2.19556Z" fill="#101010"/>
</g>
</g>
</svg>
